<mxfile host="65bd71144e">
    <diagram id="BJRmbpIk851ZGtS2sjKd" name="Page-2">
        <mxGraphModel dx="-920" dy="-861" grid="1" gridSize="10" guides="1" tooltips="1" connect="1" arrows="1" fold="1" page="1" pageScale="1" pageWidth="827" pageHeight="1169" math="0" shadow="0">
            <root>
                <mxCell id="0"/>
                <mxCell id="1" parent="0"/>
                <mxCell id="ptsJvx0-B6wgcumpalfi-1" value="Kelola Pupuk Organik" style="ellipse;whiteSpace=wrap;html=1;fillColor=#cce5ff;strokeColor=#36393d;strokeWidth=2;" parent="1" vertex="1">
                    <mxGeometry x="1840" y="2381" width="111" height="80" as="geometry"/>
                </mxCell>
                <mxCell id="ptsJvx0-B6wgcumpalfi-2" value="Kerja Pertanian&lt;br&gt;dan Pupuk Organik" style="shape=umlActor;verticalLabelPosition=bottom;verticalAlign=top;html=1;outlineConnect=0;strokeWidth=2;" parent="1" vertex="1">
                    <mxGeometry x="1708" y="2456" width="30" height="60" as="geometry"/>
                </mxCell>
                <mxCell id="ptsJvx0-B6wgcumpalfi-3" value="Kelola Pertanian dan Perkebunan" style="ellipse;whiteSpace=wrap;html=1;fillColor=#cce5ff;strokeColor=#36393d;perimeterSpacing=1;strokeWidth=2;" parent="1" vertex="1">
                    <mxGeometry x="1840.5" y="2504" width="110" height="80" as="geometry"/>
                </mxCell>
                <mxCell id="ptsJvx0-B6wgcumpalfi-4" value="" style="endArrow=none;html=1;strokeWidth=2;exitX=1;exitY=0.3333333333333333;exitDx=0;exitDy=0;exitPerimeter=0;entryX=0;entryY=0.5;entryDx=0;entryDy=0;" parent="1" source="ptsJvx0-B6wgcumpalfi-2" target="ptsJvx0-B6wgcumpalfi-1" edge="1">
                    <mxGeometry width="50" height="50" relative="1" as="geometry">
                        <mxPoint x="1778" y="2499" as="sourcePoint"/>
                        <mxPoint x="1828" y="2449" as="targetPoint"/>
                    </mxGeometry>
                </mxCell>
                <mxCell id="ptsJvx0-B6wgcumpalfi-5" value="" style="endArrow=none;html=1;strokeWidth=2;exitX=1;exitY=0.3333333333333333;exitDx=0;exitDy=0;exitPerimeter=0;entryX=0;entryY=0.5;entryDx=0;entryDy=0;" parent="1" source="ptsJvx0-B6wgcumpalfi-2" target="ptsJvx0-B6wgcumpalfi-3" edge="1">
                    <mxGeometry width="50" height="50" relative="1" as="geometry">
                        <mxPoint x="1717.0000000000002" y="2468" as="sourcePoint"/>
                        <mxPoint x="1849.9999999999955" y="2431" as="targetPoint"/>
                    </mxGeometry>
                </mxCell>
                <mxCell id="ptsJvx0-B6wgcumpalfi-6" value="Produksi Pupuk" style="ellipse;whiteSpace=wrap;html=1;strokeWidth=2;" parent="1" vertex="1">
                    <mxGeometry x="2052.5" y="2392" width="84" height="58" as="geometry"/>
                </mxCell>
                <mxCell id="ptsJvx0-B6wgcumpalfi-7" value="Produksi Keripik Kentang" style="ellipse;whiteSpace=wrap;html=1;strokeWidth=2;" parent="1" vertex="1">
                    <mxGeometry x="2040" y="2473" width="109" height="73" as="geometry"/>
                </mxCell>
                <mxCell id="ptsJvx0-B6wgcumpalfi-8" value="Produksi Emping Singkong" style="ellipse;whiteSpace=wrap;html=1;strokeWidth=2;" parent="1" vertex="1">
                    <mxGeometry x="2032" y="2576" width="117" height="67" as="geometry"/>
                </mxCell>
                <mxCell id="ptsJvx0-B6wgcumpalfi-9" value="" style="endArrow=classic;dashed=1;html=1;dashPattern=1 3;strokeWidth=2;entryX=0;entryY=0.5;entryDx=0;entryDy=0;exitX=1;exitY=0.5;exitDx=0;exitDy=0;" parent="1" source="ptsJvx0-B6wgcumpalfi-1" target="ptsJvx0-B6wgcumpalfi-6" edge="1">
                    <mxGeometry width="50" height="50" relative="1" as="geometry">
                        <mxPoint x="1711" y="2374" as="sourcePoint"/>
                        <mxPoint x="1311" y="2336" as="targetPoint"/>
                    </mxGeometry>
                </mxCell>
                <mxCell id="ptsJvx0-B6wgcumpalfi-10" value="&amp;lt;&amp;lt;include&amp;gt;&amp;gt;" style="edgeLabel;html=1;align=center;verticalAlign=middle;resizable=0;points=[];" parent="ptsJvx0-B6wgcumpalfi-9" vertex="1" connectable="0">
                    <mxGeometry x="-0.4109" y="-2" relative="1" as="geometry">
                        <mxPoint x="17" y="-2" as="offset"/>
                    </mxGeometry>
                </mxCell>
                <mxCell id="ptsJvx0-B6wgcumpalfi-11" value="" style="endArrow=classic;dashed=1;html=1;dashPattern=1 3;strokeWidth=2;entryX=0;entryY=0.5;entryDx=0;entryDy=0;exitX=0.979;exitY=0.307;exitDx=0;exitDy=0;exitPerimeter=0;" parent="1" source="ptsJvx0-B6wgcumpalfi-3" target="ptsJvx0-B6wgcumpalfi-7" edge="1">
                    <mxGeometry width="50" height="50" relative="1" as="geometry">
                        <mxPoint x="1961.0000000000045" y="2431" as="sourcePoint"/>
                        <mxPoint x="2065.0000000000014" y="2431" as="targetPoint"/>
                    </mxGeometry>
                </mxCell>
                <mxCell id="ptsJvx0-B6wgcumpalfi-12" value="&amp;lt;&amp;lt;extend&amp;gt;&amp;gt;" style="edgeLabel;html=1;align=center;verticalAlign=middle;resizable=0;points=[];" parent="ptsJvx0-B6wgcumpalfi-11" vertex="1" connectable="0">
                    <mxGeometry x="-0.4109" y="-2" relative="1" as="geometry">
                        <mxPoint x="12" y="-4" as="offset"/>
                    </mxGeometry>
                </mxCell>
                <mxCell id="ptsJvx0-B6wgcumpalfi-13" value="" style="endArrow=classic;dashed=1;html=1;dashPattern=1 3;strokeWidth=2;entryX=0;entryY=0.5;entryDx=0;entryDy=0;exitX=1;exitY=1;exitDx=0;exitDy=0;" parent="1" source="ptsJvx0-B6wgcumpalfi-3" target="ptsJvx0-B6wgcumpalfi-8" edge="1">
                    <mxGeometry width="50" height="50" relative="1" as="geometry">
                        <mxPoint x="1905.5" y="2513" as="sourcePoint"/>
                        <mxPoint x="2046.9999999999932" y="2504.5" as="targetPoint"/>
                    </mxGeometry>
                </mxCell>
                <mxCell id="ptsJvx0-B6wgcumpalfi-14" value="&amp;lt;&amp;lt;extend&amp;gt;&amp;gt;" style="edgeLabel;html=1;align=center;verticalAlign=middle;resizable=0;points=[];" parent="ptsJvx0-B6wgcumpalfi-13" vertex="1" connectable="0">
                    <mxGeometry x="-0.4109" y="-2" relative="1" as="geometry">
                        <mxPoint x="21" y="4" as="offset"/>
                    </mxGeometry>
                </mxCell>
                <mxCell id="ptsJvx0-B6wgcumpalfi-15" value="Pengguna&lt;br&gt;Layanan" style="shape=umlActor;verticalLabelPosition=bottom;verticalAlign=top;html=1;outlineConnect=0;strokeWidth=2;" parent="1" vertex="1">
                    <mxGeometry x="2420.23" y="2699" width="30" height="60" as="geometry"/>
                </mxCell>
                <mxCell id="ptsJvx0-B6wgcumpalfi-16" value="Produksi Makanan" style="ellipse;whiteSpace=wrap;html=1;fillColor=#cce5ff;strokeColor=#36393d;strokeWidth=2;" parent="1" vertex="1">
                    <mxGeometry x="2237" y="2687" width="96" height="66" as="geometry"/>
                </mxCell>
                <mxCell id="ptsJvx0-B6wgcumpalfi-17" value="" style="endArrow=none;html=1;strokeWidth=2;exitX=0;exitY=0.3333333333333333;exitDx=0;exitDy=0;exitPerimeter=0;entryX=1;entryY=0.5;entryDx=0;entryDy=0;" parent="1" source="ptsJvx0-B6wgcumpalfi-15" target="ptsJvx0-B6wgcumpalfi-16" edge="1">
                    <mxGeometry width="50" height="50" relative="1" as="geometry">
                        <mxPoint x="2054.23" y="2696" as="sourcePoint"/>
                        <mxPoint x="2222.23" y="2707" as="targetPoint"/>
                    </mxGeometry>
                </mxCell>
                <mxCell id="ptsJvx0-B6wgcumpalfi-18" value="" style="endArrow=none;html=1;strokeWidth=2;exitX=0;exitY=0.3333333333333333;exitDx=0;exitDy=0;exitPerimeter=0;entryX=1;entryY=0.5;entryDx=0;entryDy=0;" parent="1" source="ptsJvx0-B6wgcumpalfi-15" target="ptsJvx0-B6wgcumpalfi-49" edge="1">
                    <mxGeometry width="50" height="50" relative="1" as="geometry">
                        <mxPoint x="2430.23" y="2729" as="sourcePoint"/>
                        <mxPoint x="2346.229999999999" y="2871" as="targetPoint"/>
                    </mxGeometry>
                </mxCell>
                <mxCell id="ptsJvx0-B6wgcumpalfi-19" value="" style="endArrow=classic;dashed=1;html=1;dashPattern=1 3;strokeWidth=2;entryX=1;entryY=0.5;entryDx=0;entryDy=0;exitX=0;exitY=0;exitDx=0;exitDy=0;" parent="1" source="ptsJvx0-B6wgcumpalfi-16" target="ptsJvx0-B6wgcumpalfi-7" edge="1">
                    <mxGeometry width="50" height="50" relative="1" as="geometry">
                        <mxPoint x="1974.9999999999986" y="2678" as="sourcePoint"/>
                        <mxPoint x="2079.0000000000014" y="2678" as="targetPoint"/>
                    </mxGeometry>
                </mxCell>
                <mxCell id="ptsJvx0-B6wgcumpalfi-20" value="&amp;lt;&amp;lt;include&amp;gt;&amp;gt;" style="edgeLabel;html=1;align=center;verticalAlign=middle;resizable=0;points=[];" parent="ptsJvx0-B6wgcumpalfi-19" vertex="1" connectable="0">
                    <mxGeometry x="-0.4109" y="-2" relative="1" as="geometry">
                        <mxPoint x="-28" y="-42" as="offset"/>
                    </mxGeometry>
                </mxCell>
                <mxCell id="ptsJvx0-B6wgcumpalfi-21" value="" style="endArrow=classic;dashed=1;html=1;dashPattern=1 3;strokeWidth=2;entryX=1;entryY=0.5;entryDx=0;entryDy=0;exitX=0;exitY=0.5;exitDx=0;exitDy=0;" parent="1" source="ptsJvx0-B6wgcumpalfi-16" target="ptsJvx0-B6wgcumpalfi-8" edge="1">
                    <mxGeometry width="50" height="50" relative="1" as="geometry">
                        <mxPoint x="2279.0000000000077" y="2737" as="sourcePoint"/>
                        <mxPoint x="2173.000000000007" y="2766.5" as="targetPoint"/>
                    </mxGeometry>
                </mxCell>
                <mxCell id="ptsJvx0-B6wgcumpalfi-22" value="&amp;lt;&amp;lt;include&amp;gt;&amp;gt;" style="edgeLabel;html=1;align=center;verticalAlign=middle;resizable=0;points=[];" parent="ptsJvx0-B6wgcumpalfi-21" vertex="1" connectable="0">
                    <mxGeometry x="-0.4109" y="-2" relative="1" as="geometry">
                        <mxPoint x="-22" y="-22" as="offset"/>
                    </mxGeometry>
                </mxCell>
                <mxCell id="ptsJvx0-B6wgcumpalfi-23" value="Sarana dan&lt;br&gt;Perasarana" style="shape=umlActor;verticalLabelPosition=bottom;verticalAlign=top;html=1;outlineConnect=0;strokeWidth=2;" parent="1" vertex="1">
                    <mxGeometry x="1690" y="2155" width="30" height="60" as="geometry"/>
                </mxCell>
                <mxCell id="ptsJvx0-B6wgcumpalfi-24" value="Mesin Produksi Keripik Kentang" style="ellipse;whiteSpace=wrap;html=1;strokeWidth=2;" parent="1" vertex="1">
                    <mxGeometry x="2159.5" y="2110" width="120" height="80" as="geometry"/>
                </mxCell>
                <mxCell id="ptsJvx0-B6wgcumpalfi-25" value="Kelola Mekanikal" style="ellipse;whiteSpace=wrap;html=1;fillColor=#cce5ff;strokeColor=#36393d;strokeWidth=2;" parent="1" vertex="1">
                    <mxGeometry x="1837" y="2135" width="120" height="80" as="geometry"/>
                </mxCell>
                <mxCell id="ptsJvx0-B6wgcumpalfi-26" value="Mengelola Mesin Digester" style="ellipse;whiteSpace=wrap;html=1;strokeWidth=2;" parent="1" vertex="1">
                    <mxGeometry x="2004" y="2270" width="120" height="80" as="geometry"/>
                </mxCell>
                <mxCell id="ptsJvx0-B6wgcumpalfi-27" value="Mesin Produksi Emping Singkong" style="ellipse;whiteSpace=wrap;html=1;strokeWidth=2;" parent="1" vertex="1">
                    <mxGeometry x="2124" y="2210" width="120" height="80" as="geometry"/>
                </mxCell>
                <mxCell id="ptsJvx0-B6wgcumpalfi-28" value="" style="endArrow=none;html=1;strokeWidth=2;exitX=1;exitY=0.3333333333333333;exitDx=0;exitDy=0;exitPerimeter=0;entryX=0;entryY=0.5;entryDx=0;entryDy=0;" parent="1" source="ptsJvx0-B6wgcumpalfi-23" target="ptsJvx0-B6wgcumpalfi-25" edge="1">
                    <mxGeometry width="50" height="50" relative="1" as="geometry">
                        <mxPoint x="2192.73" y="1821" as="sourcePoint"/>
                        <mxPoint x="2091.5" y="2011" as="targetPoint"/>
                    </mxGeometry>
                </mxCell>
                <mxCell id="ptsJvx0-B6wgcumpalfi-29" value="" style="endArrow=classic;dashed=1;html=1;dashPattern=1 3;strokeWidth=2;entryX=0;entryY=0.5;entryDx=0;entryDy=0;exitX=1;exitY=0;exitDx=0;exitDy=0;" parent="1" source="ptsJvx0-B6wgcumpalfi-25" target="ptsJvx0-B6wgcumpalfi-24" edge="1">
                    <mxGeometry width="50" height="50" relative="1" as="geometry">
                        <mxPoint x="2017.73" y="1886" as="sourcePoint"/>
                        <mxPoint x="1935.5" y="1958.5" as="targetPoint"/>
                        <Array as="points"/>
                    </mxGeometry>
                </mxCell>
                <mxCell id="ptsJvx0-B6wgcumpalfi-30" value="&amp;lt;&amp;lt;include&amp;gt;&amp;gt;" style="edgeLabel;html=1;align=center;verticalAlign=middle;resizable=0;points=[];" parent="ptsJvx0-B6wgcumpalfi-29" vertex="1" connectable="0">
                    <mxGeometry x="-0.4109" y="-2" relative="1" as="geometry">
                        <mxPoint x="24" y="-9" as="offset"/>
                    </mxGeometry>
                </mxCell>
                <mxCell id="ptsJvx0-B6wgcumpalfi-31" value="" style="endArrow=classic;dashed=1;html=1;dashPattern=1 3;strokeWidth=2;entryX=0;entryY=0.5;entryDx=0;entryDy=0;exitX=1;exitY=0.5;exitDx=0;exitDy=0;" parent="1" source="ptsJvx0-B6wgcumpalfi-25" target="ptsJvx0-B6wgcumpalfi-27" edge="1">
                    <mxGeometry width="50" height="50" relative="1" as="geometry">
                        <mxPoint x="2028.3035931288073" y="2227.284271247462" as="sourcePoint"/>
                        <mxPoint x="1885.5" y="2260" as="targetPoint"/>
                    </mxGeometry>
                </mxCell>
                <mxCell id="ptsJvx0-B6wgcumpalfi-32" value="&amp;lt;&amp;lt;include&amp;gt;&amp;gt;" style="edgeLabel;html=1;align=center;verticalAlign=middle;resizable=0;points=[];" parent="ptsJvx0-B6wgcumpalfi-31" vertex="1" connectable="0">
                    <mxGeometry x="-0.4109" y="-2" relative="1" as="geometry">
                        <mxPoint x="22" y="-1" as="offset"/>
                    </mxGeometry>
                </mxCell>
                <mxCell id="ptsJvx0-B6wgcumpalfi-33" value="Kerja Peternakan" style="shape=umlActor;verticalLabelPosition=bottom;verticalAlign=top;html=1;outlineConnect=0;strokeWidth=2;" parent="1" vertex="1">
                    <mxGeometry x="1720" y="2781" width="30" height="60" as="geometry"/>
                </mxCell>
                <mxCell id="ptsJvx0-B6wgcumpalfi-34" value="Kelola Peternakan Ikan" style="ellipse;whiteSpace=wrap;html=1;strokeWidth=2;" parent="1" vertex="1">
                    <mxGeometry x="1998" y="2942" width="120" height="80" as="geometry"/>
                </mxCell>
                <mxCell id="ptsJvx0-B6wgcumpalfi-35" value="Kelola Peternakan Kambing" style="ellipse;whiteSpace=wrap;html=1;strokeWidth=2;" parent="1" vertex="1">
                    <mxGeometry x="1829" y="2947" width="120" height="80" as="geometry"/>
                </mxCell>
                <mxCell id="ptsJvx0-B6wgcumpalfi-36" value="Kelola Peternakan" style="ellipse;whiteSpace=wrap;html=1;fillColor=#cce5ff;strokeColor=#36393d;strokeWidth=2;" parent="1" vertex="1">
                    <mxGeometry x="1829" y="2781" width="120" height="80" as="geometry"/>
                </mxCell>
                <mxCell id="ptsJvx0-B6wgcumpalfi-37" value="" style="endArrow=none;html=1;strokeWidth=2;exitX=1;exitY=0.3333333333333333;exitDx=0;exitDy=0;exitPerimeter=0;entryX=0;entryY=0.5;entryDx=0;entryDy=0;" parent="1" source="ptsJvx0-B6wgcumpalfi-33" target="ptsJvx0-B6wgcumpalfi-36" edge="1">
                    <mxGeometry width="50" height="50" relative="1" as="geometry">
                        <mxPoint x="1782.0000000000002" y="2716.5" as="sourcePoint"/>
                        <mxPoint x="1883.5" y="2784.5" as="targetPoint"/>
                    </mxGeometry>
                </mxCell>
                <mxCell id="ptsJvx0-B6wgcumpalfi-38" value="" style="endArrow=classic;dashed=1;html=1;dashPattern=1 3;strokeWidth=2;entryX=0;entryY=0;entryDx=0;entryDy=0;exitX=1;exitY=1;exitDx=0;exitDy=0;" parent="1" source="ptsJvx0-B6wgcumpalfi-36" target="ptsJvx0-B6wgcumpalfi-34" edge="1">
                    <mxGeometry width="50" height="50" relative="1" as="geometry">
                        <mxPoint x="2285.803593128807" y="3062.215728752538" as="sourcePoint"/>
                        <mxPoint x="2199.426406871201" y="2994.7842712474676" as="targetPoint"/>
                    </mxGeometry>
                </mxCell>
                <mxCell id="ptsJvx0-B6wgcumpalfi-39" value="&amp;lt;&amp;lt;include&amp;gt;&amp;gt;" style="edgeLabel;html=1;align=center;verticalAlign=middle;resizable=0;points=[];" parent="ptsJvx0-B6wgcumpalfi-38" vertex="1" connectable="0">
                    <mxGeometry x="-0.4109" y="-2" relative="1" as="geometry">
                        <mxPoint x="16" y="2" as="offset"/>
                    </mxGeometry>
                </mxCell>
                <mxCell id="ptsJvx0-B6wgcumpalfi-40" value="" style="endArrow=classic;dashed=1;html=1;dashPattern=1 3;strokeWidth=2;entryX=0.5;entryY=0;entryDx=0;entryDy=0;exitX=0.5;exitY=1;exitDx=0;exitDy=0;" parent="1" source="ptsJvx0-B6wgcumpalfi-36" target="ptsJvx0-B6wgcumpalfi-35" edge="1">
                    <mxGeometry width="50" height="50" relative="1" as="geometry">
                        <mxPoint x="1962.4264068711932" y="3018.2157287525383" as="sourcePoint"/>
                        <mxPoint x="1980" y="2940.5" as="targetPoint"/>
                    </mxGeometry>
                </mxCell>
                <mxCell id="ptsJvx0-B6wgcumpalfi-41" value="&amp;lt;&amp;lt;include&amp;gt;&amp;gt;" style="edgeLabel;html=1;align=center;verticalAlign=middle;resizable=0;points=[];" parent="ptsJvx0-B6wgcumpalfi-40" vertex="1" connectable="0">
                    <mxGeometry x="-0.4109" y="-2" relative="1" as="geometry">
                        <mxPoint x="5" y="12" as="offset"/>
                    </mxGeometry>
                </mxCell>
                <mxCell id="ptsJvx0-B6wgcumpalfi-42" value="Universitas /&lt;br&gt;Lembaga Binaan" style="shape=umlActor;verticalLabelPosition=bottom;verticalAlign=top;html=1;outlineConnect=0;strokeWidth=2;" parent="1" vertex="1">
                    <mxGeometry x="2420.23" y="3097" width="30" height="60" as="geometry"/>
                </mxCell>
                <mxCell id="ptsJvx0-B6wgcumpalfi-43" value="Menyediakan Sumber Daya dan Hibah" style="ellipse;whiteSpace=wrap;html=1;fillColor=#cce5ff;strokeColor=#36393d;strokeWidth=2;" parent="1" vertex="1">
                    <mxGeometry x="2188" y="3008" width="112" height="80" as="geometry"/>
                </mxCell>
                <mxCell id="ptsJvx0-B6wgcumpalfi-44" value="" style="endArrow=none;html=1;strokeWidth=2;exitX=0;exitY=0.3333333333333333;exitDx=0;exitDy=0;exitPerimeter=0;entryX=1;entryY=0.5;entryDx=0;entryDy=0;" parent="1" source="ptsJvx0-B6wgcumpalfi-42" target="ptsJvx0-B6wgcumpalfi-43" edge="1">
                    <mxGeometry width="50" height="50" relative="1" as="geometry">
                        <mxPoint x="1796" y="3132" as="sourcePoint"/>
                        <mxPoint x="1874.0000000000095" y="3132" as="targetPoint"/>
                    </mxGeometry>
                </mxCell>
                <mxCell id="ptsJvx0-B6wgcumpalfi-45" value="" style="endArrow=classic;dashed=1;html=1;dashPattern=1 3;strokeWidth=2;entryX=1;entryY=0.5;entryDx=0;entryDy=0;exitX=0;exitY=0;exitDx=0;exitDy=0;" parent="1" source="ptsJvx0-B6wgcumpalfi-43" target="ptsJvx0-B6wgcumpalfi-34" edge="1">
                    <mxGeometry width="50" height="50" relative="1" as="geometry">
                        <mxPoint x="2321.23" y="2876" as="sourcePoint"/>
                        <mxPoint x="2210.00000000001" y="2936" as="targetPoint"/>
                    </mxGeometry>
                </mxCell>
                <mxCell id="ptsJvx0-B6wgcumpalfi-46" value="&amp;lt;&amp;lt;extend&amp;gt;&amp;gt;" style="edgeLabel;html=1;align=center;verticalAlign=middle;resizable=0;points=[];" parent="ptsJvx0-B6wgcumpalfi-45" vertex="1" connectable="0">
                    <mxGeometry x="-0.4109" y="-2" relative="1" as="geometry">
                        <mxPoint x="-21" y="-6" as="offset"/>
                    </mxGeometry>
                </mxCell>
                <mxCell id="ptsJvx0-B6wgcumpalfi-47" value="" style="endArrow=classic;dashed=1;html=1;dashPattern=1 3;strokeWidth=2;entryX=0.5;entryY=1;entryDx=0;entryDy=0;exitX=0;exitY=0.5;exitDx=0;exitDy=0;" parent="1" source="ptsJvx0-B6wgcumpalfi-43" target="ptsJvx0-B6wgcumpalfi-35" edge="1">
                    <mxGeometry width="50" height="50" relative="1" as="geometry">
                        <mxPoint x="2261.2299999999946" y="2992" as="sourcePoint"/>
                        <mxPoint x="2167" y="3062" as="targetPoint"/>
                        <Array as="points">
                            <mxPoint x="1890" y="3050"/>
                        </Array>
                    </mxGeometry>
                </mxCell>
                <mxCell id="ptsJvx0-B6wgcumpalfi-48" value="&amp;lt;&amp;lt;extend&amp;gt;&amp;gt;" style="edgeLabel;html=1;align=center;verticalAlign=middle;resizable=0;points=[];" parent="ptsJvx0-B6wgcumpalfi-47" vertex="1" connectable="0">
                    <mxGeometry x="-0.4109" y="-2" relative="1" as="geometry">
                        <mxPoint x="-47" y="2" as="offset"/>
                    </mxGeometry>
                </mxCell>
                <mxCell id="ptsJvx0-B6wgcumpalfi-49" value="Pembinaan dan Pelatihan" style="ellipse;whiteSpace=wrap;html=1;fillColor=#cce5ff;strokeColor=#36393d;" parent="1" vertex="1">
                    <mxGeometry x="2214" y="2850" width="120" height="80" as="geometry"/>
                </mxCell>
                <mxCell id="ptsJvx0-B6wgcumpalfi-50" value="" style="endArrow=none;html=1;strokeWidth=2;exitX=0;exitY=0.3333333333333333;exitDx=0;exitDy=0;exitPerimeter=0;entryX=1;entryY=0.5;entryDx=0;entryDy=0;" parent="1" source="ptsJvx0-B6wgcumpalfi-42" target="ptsJvx0-B6wgcumpalfi-49" edge="1">
                    <mxGeometry width="50" height="50" relative="1" as="geometry">
                        <mxPoint x="2444" y="3206.0000000000005" as="sourcePoint"/>
                        <mxPoint x="2356.2300000000164" y="3223" as="targetPoint"/>
                    </mxGeometry>
                </mxCell>
                <mxCell id="ptsJvx0-B6wgcumpalfi-51" value="Melakukan Pelatihan" style="ellipse;whiteSpace=wrap;html=1;strokeWidth=2;" parent="1" vertex="1">
                    <mxGeometry x="2024" y="2855" width="101" height="68" as="geometry"/>
                </mxCell>
                <mxCell id="ptsJvx0-B6wgcumpalfi-52" value="" style="endArrow=classic;dashed=1;html=1;dashPattern=1 3;strokeWidth=2;entryX=1;entryY=0.5;entryDx=0;entryDy=0;exitX=0;exitY=0.5;exitDx=0;exitDy=0;" parent="1" source="ptsJvx0-B6wgcumpalfi-49" target="ptsJvx0-B6wgcumpalfi-51" edge="1">
                    <mxGeometry width="50" height="50" relative="1" as="geometry">
                        <mxPoint x="1949.4264068712014" y="2901.7157287525324" as="sourcePoint"/>
                        <mxPoint x="2047" y="3065.9999999999995" as="targetPoint"/>
                    </mxGeometry>
                </mxCell>
                <mxCell id="ptsJvx0-B6wgcumpalfi-53" value="&amp;lt;&amp;lt;include&amp;gt;&amp;gt;" style="edgeLabel;html=1;align=center;verticalAlign=middle;resizable=0;points=[];" parent="ptsJvx0-B6wgcumpalfi-52" vertex="1" connectable="0">
                    <mxGeometry x="-0.4109" y="-2" relative="1" as="geometry">
                        <mxPoint x="-17" as="offset"/>
                    </mxGeometry>
                </mxCell>
                <mxCell id="ptsJvx0-B6wgcumpalfi-54" value="Penggunaan Layanan" style="ellipse;whiteSpace=wrap;html=1;fillColor=#cce5ff;strokeColor=#36393d;strokeWidth=2;" parent="1" vertex="1">
                    <mxGeometry x="2237" y="2500" width="96" height="66" as="geometry"/>
                </mxCell>
                <mxCell id="ptsJvx0-B6wgcumpalfi-55" value="" style="endArrow=none;html=1;strokeWidth=2;exitX=0;exitY=0.3333333333333333;exitDx=0;exitDy=0;exitPerimeter=0;entryX=1;entryY=0.5;entryDx=0;entryDy=0;" parent="1" source="ptsJvx0-B6wgcumpalfi-15" target="ptsJvx0-B6wgcumpalfi-54" edge="1">
                    <mxGeometry width="50" height="50" relative="1" as="geometry">
                        <mxPoint x="2430.23" y="2729" as="sourcePoint"/>
                        <mxPoint x="2352.000000000007" y="2817" as="targetPoint"/>
                    </mxGeometry>
                </mxCell>
                <mxCell id="ptsJvx0-B6wgcumpalfi-56" value="Mesin Pengelola Komposter" style="ellipse;whiteSpace=wrap;html=1;strokeWidth=2;" parent="1" vertex="1">
                    <mxGeometry x="1837" y="2258" width="120" height="80" as="geometry"/>
                </mxCell>
                <mxCell id="ptsJvx0-B6wgcumpalfi-57" value="Pengelolaan Peternakan Puyuh" style="ellipse;whiteSpace=wrap;html=1;fillColor=#cce5ff;strokeColor=#36393d;strokeWidth=2;" parent="1" vertex="1">
                    <mxGeometry x="1815" y="2644" width="120" height="80" as="geometry"/>
                </mxCell>
                <mxCell id="ptsJvx0-B6wgcumpalfi-58" value="" style="endArrow=none;html=1;strokeWidth=2;exitX=1;exitY=0.3333333333333333;exitDx=0;exitDy=0;exitPerimeter=0;entryX=0;entryY=0.5;entryDx=0;entryDy=0;" parent="1" source="ptsJvx0-B6wgcumpalfi-2" target="ptsJvx0-B6wgcumpalfi-57" edge="1">
                    <mxGeometry width="50" height="50" relative="1" as="geometry">
                        <mxPoint x="1748" y="2486" as="sourcePoint"/>
                        <mxPoint x="1849.5000000000005" y="2554" as="targetPoint"/>
                        <Array as="points">
                            <mxPoint x="1790" y="2550"/>
                        </Array>
                    </mxGeometry>
                </mxCell>
                <mxCell id="ptsJvx0-B6wgcumpalfi-59" value="" style="endArrow=none;html=1;strokeWidth=2;exitX=0;exitY=0.5;exitDx=0;exitDy=0;entryX=1;entryY=0.3333333333333333;entryDx=0;entryDy=0;entryPerimeter=0;" parent="1" source="ptsJvx0-B6wgcumpalfi-57" target="ptsJvx0-B6wgcumpalfi-33" edge="1">
                    <mxGeometry width="50" height="50" relative="1" as="geometry">
                        <mxPoint x="1748" y="2486" as="sourcePoint"/>
                        <mxPoint x="1840.5" y="2758" as="targetPoint"/>
                    </mxGeometry>
                </mxCell>
                <mxCell id="ptsJvx0-B6wgcumpalfi-60" value="Mengolah Kascing" style="ellipse;whiteSpace=wrap;html=1;strokeWidth=2;" parent="1" vertex="1">
                    <mxGeometry x="2029" y="2673" width="120" height="80" as="geometry"/>
                </mxCell>
                <mxCell id="ptsJvx0-B6wgcumpalfi-61" value="" style="endArrow=classic;dashed=1;html=1;dashPattern=1 3;strokeWidth=2;entryX=0;entryY=0.5;entryDx=0;entryDy=0;exitX=1;exitY=0;exitDx=0;exitDy=0;" parent="1" source="ptsJvx0-B6wgcumpalfi-57" target="ptsJvx0-B6wgcumpalfi-60" edge="1">
                    <mxGeometry width="50" height="50" relative="1" as="geometry">
                        <mxPoint x="1945.0376630504488" y="2583.0354713026736" as="sourcePoint"/>
                        <mxPoint x="2042.000000000006" y="2619.5" as="targetPoint"/>
                    </mxGeometry>
                </mxCell>
                <mxCell id="ptsJvx0-B6wgcumpalfi-62" value="&amp;lt;&amp;lt;include&amp;gt;&amp;gt;" style="edgeLabel;html=1;align=center;verticalAlign=middle;resizable=0;points=[];" parent="ptsJvx0-B6wgcumpalfi-61" vertex="1" connectable="0">
                    <mxGeometry x="-0.4109" y="-2" relative="1" as="geometry">
                        <mxPoint x="27" y="-3" as="offset"/>
                    </mxGeometry>
                </mxCell>
                <mxCell id="ptsJvx0-B6wgcumpalfi-63" value="Pengolahan Puyuh" style="ellipse;whiteSpace=wrap;html=1;strokeWidth=2;" parent="1" vertex="1">
                    <mxGeometry x="2065" y="2764" width="120" height="80" as="geometry"/>
                </mxCell>
                <mxCell id="ptsJvx0-B6wgcumpalfi-64" value="" style="endArrow=classic;dashed=1;html=1;dashPattern=1 3;strokeWidth=2;entryX=0;entryY=0.5;entryDx=0;entryDy=0;exitX=1;exitY=1;exitDx=0;exitDy=0;" parent="1" source="ptsJvx0-B6wgcumpalfi-57" target="ptsJvx0-B6wgcumpalfi-63" edge="1">
                    <mxGeometry width="50" height="50" relative="1" as="geometry">
                        <mxPoint x="1945.119608132898" y="2582.9755343061497" as="sourcePoint"/>
                        <mxPoint x="2041.9999999999982" y="2619.5" as="targetPoint"/>
                    </mxGeometry>
                </mxCell>
                <mxCell id="ptsJvx0-B6wgcumpalfi-65" value="&amp;lt;&amp;lt;extend&amp;gt;&amp;gt;" style="edgeLabel;html=1;align=center;verticalAlign=middle;resizable=0;points=[];" parent="ptsJvx0-B6wgcumpalfi-64" vertex="1" connectable="0">
                    <mxGeometry x="-0.4109" y="-2" relative="1" as="geometry">
                        <mxPoint x="20" y="4" as="offset"/>
                    </mxGeometry>
                </mxCell>
                <mxCell id="ptsJvx0-B6wgcumpalfi-66" value="" style="endArrow=classic;dashed=1;html=1;dashPattern=1 3;strokeWidth=2;entryX=1;entryY=0.5;entryDx=0;entryDy=0;exitX=0;exitY=1;exitDx=0;exitDy=0;" parent="1" source="ptsJvx0-B6wgcumpalfi-16" target="ptsJvx0-B6wgcumpalfi-63" edge="1">
                    <mxGeometry width="50" height="50" relative="1" as="geometry">
                        <mxPoint x="1942.9264068711927" y="2786.284271247462" as="sourcePoint"/>
                        <mxPoint x="2077" y="2833" as="targetPoint"/>
                    </mxGeometry>
                </mxCell>
                <mxCell id="ptsJvx0-B6wgcumpalfi-67" value="&amp;lt;&amp;lt;include&amp;gt;&amp;gt;" style="edgeLabel;html=1;align=center;verticalAlign=middle;resizable=0;points=[];" parent="ptsJvx0-B6wgcumpalfi-66" vertex="1" connectable="0">
                    <mxGeometry x="-0.4109" y="-2" relative="1" as="geometry">
                        <mxPoint x="-11" y="13" as="offset"/>
                    </mxGeometry>
                </mxCell>
                <mxCell id="ptsJvx0-B6wgcumpalfi-68" value="" style="endArrow=classic;dashed=1;html=1;dashPattern=1 3;strokeWidth=2;entryX=0.5;entryY=1;entryDx=0;entryDy=0;exitX=0.5;exitY=0;exitDx=0;exitDy=0;" parent="1" source="ptsJvx0-B6wgcumpalfi-1" target="ptsJvx0-B6wgcumpalfi-56" edge="1">
                    <mxGeometry width="50" height="50" relative="1" as="geometry">
                        <mxPoint x="1910.5" y="2234" as="sourcePoint"/>
                        <mxPoint x="2250.5" y="2288" as="targetPoint"/>
                    </mxGeometry>
                </mxCell>
                <mxCell id="ptsJvx0-B6wgcumpalfi-69" value="&amp;lt;&amp;lt;include&amp;gt;&amp;gt;" style="edgeLabel;html=1;align=center;verticalAlign=middle;resizable=0;points=[];" parent="ptsJvx0-B6wgcumpalfi-68" vertex="1" connectable="0">
                    <mxGeometry x="-0.4109" y="-2" relative="1" as="geometry">
                        <mxPoint x="-1" y="-3" as="offset"/>
                    </mxGeometry>
                </mxCell>
                <mxCell id="ptsJvx0-B6wgcumpalfi-70" value="" style="endArrow=classic;dashed=1;html=1;dashPattern=1 3;strokeWidth=2;entryX=0.5;entryY=0;entryDx=0;entryDy=0;exitX=0.5;exitY=1;exitDx=0;exitDy=0;" parent="1" source="ptsJvx0-B6wgcumpalfi-25" target="ptsJvx0-B6wgcumpalfi-56" edge="1">
                    <mxGeometry width="50" height="50" relative="1" as="geometry">
                        <mxPoint x="1944.7387226387104" y="2402.7116185627906" as="sourcePoint"/>
                        <mxPoint x="1984.5735931288068" y="2348.284271247462" as="targetPoint"/>
                    </mxGeometry>
                </mxCell>
                <mxCell id="ptsJvx0-B6wgcumpalfi-71" value="&amp;lt;&amp;lt;include&amp;gt;&amp;gt;" style="edgeLabel;html=1;align=center;verticalAlign=middle;resizable=0;points=[];" parent="ptsJvx0-B6wgcumpalfi-70" vertex="1" connectable="0">
                    <mxGeometry x="-0.4109" y="-2" relative="1" as="geometry">
                        <mxPoint x="4" y="2" as="offset"/>
                    </mxGeometry>
                </mxCell>
                <mxCell id="ptsJvx0-B6wgcumpalfi-72" value="" style="endArrow=classic;dashed=1;html=1;dashPattern=1 3;strokeWidth=2;entryX=0.5;entryY=1;entryDx=0;entryDy=0;exitX=0;exitY=0;exitDx=0;exitDy=0;" parent="1" source="ptsJvx0-B6wgcumpalfi-54" target="ptsJvx0-B6wgcumpalfi-27" edge="1">
                    <mxGeometry width="50" height="50" relative="1" as="geometry">
                        <mxPoint x="2300" y="2560" as="sourcePoint"/>
                        <mxPoint x="2234" y="2389" as="targetPoint"/>
                    </mxGeometry>
                </mxCell>
                <mxCell id="ptsJvx0-B6wgcumpalfi-73" value="&amp;lt;&amp;lt;extend&amp;gt;&amp;gt;" style="edgeLabel;html=1;align=center;verticalAlign=middle;resizable=0;points=[];" parent="ptsJvx0-B6wgcumpalfi-72" vertex="1" connectable="0">
                    <mxGeometry x="-0.4109" y="-2" relative="1" as="geometry">
                        <mxPoint x="-16" y="-37" as="offset"/>
                    </mxGeometry>
                </mxCell>
                <mxCell id="ptsJvx0-B6wgcumpalfi-74" value="" style="endArrow=classic;dashed=1;html=1;dashPattern=1 3;strokeWidth=2;exitX=0.5;exitY=0;exitDx=0;exitDy=0;entryX=1;entryY=0.5;entryDx=0;entryDy=0;" parent="1" source="ptsJvx0-B6wgcumpalfi-54" target="ptsJvx0-B6wgcumpalfi-24" edge="1">
                    <mxGeometry width="50" height="50" relative="1" as="geometry">
                        <mxPoint x="2294.9999999999995" y="2697" as="sourcePoint"/>
                        <mxPoint x="2129" y="2280" as="targetPoint"/>
                    </mxGeometry>
                </mxCell>
                <mxCell id="ptsJvx0-B6wgcumpalfi-75" value="&amp;lt;&amp;lt;extend&amp;gt;&amp;gt;" style="edgeLabel;html=1;align=center;verticalAlign=middle;resizable=0;points=[];" parent="ptsJvx0-B6wgcumpalfi-74" vertex="1" connectable="0">
                    <mxGeometry x="-0.4109" y="-2" relative="1" as="geometry">
                        <mxPoint x="-8" y="-44" as="offset"/>
                    </mxGeometry>
                </mxCell>
                <mxCell id="ptsJvx0-B6wgcumpalfi-76" value="" style="endArrow=classic;dashed=1;html=1;dashPattern=1 3;strokeWidth=2;entryX=0;entryY=0;entryDx=0;entryDy=0;exitX=1;exitY=1;exitDx=0;exitDy=0;" parent="1" source="ptsJvx0-B6wgcumpalfi-25" target="ptsJvx0-B6wgcumpalfi-26" edge="1">
                    <mxGeometry width="50" height="50" relative="1" as="geometry">
                        <mxPoint x="1907" y="2225" as="sourcePoint"/>
                        <mxPoint x="1907" y="2268" as="targetPoint"/>
                    </mxGeometry>
                </mxCell>
                <mxCell id="ptsJvx0-B6wgcumpalfi-77" value="&amp;lt;&amp;lt;include&amp;gt;&amp;gt;" style="edgeLabel;html=1;align=center;verticalAlign=middle;resizable=0;points=[];" parent="ptsJvx0-B6wgcumpalfi-76" vertex="1" connectable="0">
                    <mxGeometry x="-0.4109" y="-2" relative="1" as="geometry">
                        <mxPoint x="19" y="14" as="offset"/>
                    </mxGeometry>
                </mxCell>
                <mxCell id="ptsJvx0-B6wgcumpalfi-78" value="" style="endArrow=classic;dashed=1;html=1;dashPattern=1 3;strokeWidth=2;entryX=0;entryY=1;entryDx=0;entryDy=0;exitX=1;exitY=0;exitDx=0;exitDy=0;" parent="1" source="ptsJvx0-B6wgcumpalfi-1" target="ptsJvx0-B6wgcumpalfi-26" edge="1">
                    <mxGeometry width="50" height="50" relative="1" as="geometry">
                        <mxPoint x="1917" y="2235" as="sourcePoint"/>
                        <mxPoint x="1917" y="2278" as="targetPoint"/>
                    </mxGeometry>
                </mxCell>
                <mxCell id="ptsJvx0-B6wgcumpalfi-79" value="&amp;lt;&amp;lt;include&amp;gt;&amp;gt;" style="edgeLabel;html=1;align=center;verticalAlign=middle;resizable=0;points=[];" parent="ptsJvx0-B6wgcumpalfi-78" vertex="1" connectable="0">
                    <mxGeometry x="-0.4109" y="-2" relative="1" as="geometry">
                        <mxPoint x="13" y="-16" as="offset"/>
                    </mxGeometry>
                </mxCell>
                <mxCell id="j7mDtUDvfuxQD1GToR6E-1" value="Pembina" style="shape=umlActor;verticalLabelPosition=bottom;verticalAlign=top;html=1;outlineConnect=0;strokeWidth=2;" parent="1" vertex="1">
                    <mxGeometry x="1690" y="3257" width="30" height="60" as="geometry"/>
                </mxCell>
                <mxCell id="j7mDtUDvfuxQD1GToR6E-2" value="Ketua&lt;br&gt;Umum" style="shape=umlActor;verticalLabelPosition=bottom;verticalAlign=top;html=1;outlineConnect=0;strokeWidth=2;" parent="1" vertex="1">
                    <mxGeometry x="1708" y="3120" width="30" height="60" as="geometry"/>
                </mxCell>
                <mxCell id="j7mDtUDvfuxQD1GToR6E-4" value="Sekretaris" style="shape=umlActor;verticalLabelPosition=bottom;verticalAlign=top;html=1;outlineConnect=0;strokeWidth=2;" parent="1" vertex="1">
                    <mxGeometry x="1708" y="2985" width="30" height="60" as="geometry"/>
                </mxCell>
                <mxCell id="j7mDtUDvfuxQD1GToR6E-5" value="Kelola Adminitrasi Posyentekdes" style="ellipse;whiteSpace=wrap;html=1;fillColor=#cce5ff;strokeColor=#36393d;strokeWidth=2;" parent="1" vertex="1">
                    <mxGeometry x="1922" y="3067.5" width="120" height="80" as="geometry"/>
                </mxCell>
                <mxCell id="j7mDtUDvfuxQD1GToR6E-7" value="Kelola Posyantekdes" style="ellipse;whiteSpace=wrap;html=1;fillColor=#cce5ff;strokeColor=#36393d;strokeWidth=2;" parent="1" vertex="1">
                    <mxGeometry x="2033" y="3245" width="107" height="70" as="geometry"/>
                </mxCell>
                <mxCell id="j7mDtUDvfuxQD1GToR6E-8" value="Kerja Humas &amp;amp;&lt;br&gt;Teknologi Informasi" style="shape=umlActor;verticalLabelPosition=bottom;verticalAlign=top;html=1;outlineConnect=0;strokeWidth=2;" parent="1" vertex="1">
                    <mxGeometry x="2420.23" y="3235" width="30" height="59" as="geometry"/>
                </mxCell>
                <mxCell id="j7mDtUDvfuxQD1GToR6E-10" value="Kelola Kerjasama Mitra" style="ellipse;whiteSpace=wrap;html=1;fillColor=#cce5ff;strokeColor=#36393d;strokeWidth=2;" parent="1" vertex="1">
                    <mxGeometry x="2185" y="3220" width="105" height="70" as="geometry"/>
                </mxCell>
                <mxCell id="j7mDtUDvfuxQD1GToR6E-11" value="" style="endArrow=none;html=1;strokeWidth=2;entryX=1;entryY=0.5;entryDx=0;entryDy=0;exitX=0;exitY=0.3333333333333333;exitDx=0;exitDy=0;exitPerimeter=0;" parent="1" source="ptsJvx0-B6wgcumpalfi-42" target="j7mDtUDvfuxQD1GToR6E-10" edge="1">
                    <mxGeometry width="50" height="50" relative="1" as="geometry">
                        <mxPoint x="2350" y="3060" as="sourcePoint"/>
                        <mxPoint x="2289.9999999999977" y="3245" as="targetPoint"/>
                    </mxGeometry>
                </mxCell>
                <mxCell id="j7mDtUDvfuxQD1GToR6E-12" value="Melakukan Kerjasama" style="ellipse;whiteSpace=wrap;html=1;strokeWidth=2;" parent="1" vertex="1">
                    <mxGeometry x="2083.75" y="3077.5" width="97.5" height="70" as="geometry"/>
                </mxCell>
                <mxCell id="j7mDtUDvfuxQD1GToR6E-13" value="" style="endArrow=none;html=1;strokeWidth=2;entryX=1;entryY=0.5;entryDx=0;entryDy=0;exitX=0;exitY=0.3333333333333333;exitDx=0;exitDy=0;exitPerimeter=0;" parent="1" source="j7mDtUDvfuxQD1GToR6E-8" target="j7mDtUDvfuxQD1GToR6E-10" edge="1">
                    <mxGeometry width="50" height="50" relative="1" as="geometry">
                        <mxPoint x="2430.23" y="3127" as="sourcePoint"/>
                        <mxPoint x="2299.9999999999977" y="3265" as="targetPoint"/>
                    </mxGeometry>
                </mxCell>
                <mxCell id="j7mDtUDvfuxQD1GToR6E-16" value="" style="endArrow=classic;dashed=1;html=1;dashPattern=1 3;strokeWidth=2;entryX=0.5;entryY=1;entryDx=0;entryDy=0;exitX=0;exitY=0.5;exitDx=0;exitDy=0;" parent="1" source="j7mDtUDvfuxQD1GToR6E-10" target="j7mDtUDvfuxQD1GToR6E-12" edge="1">
                    <mxGeometry width="50" height="50" relative="1" as="geometry">
                        <mxPoint x="1907" y="2970" as="sourcePoint"/>
                        <mxPoint x="1905.5" y="3090" as="targetPoint"/>
                    </mxGeometry>
                </mxCell>
                <mxCell id="j7mDtUDvfuxQD1GToR6E-17" value="&amp;lt;&amp;lt;include&amp;gt;&amp;gt;" style="edgeLabel;html=1;align=center;verticalAlign=middle;resizable=0;points=[];" parent="j7mDtUDvfuxQD1GToR6E-16" vertex="1" connectable="0">
                    <mxGeometry x="-0.4109" y="-2" relative="1" as="geometry">
                        <mxPoint x="-12" y="-22" as="offset"/>
                    </mxGeometry>
                </mxCell>
                <mxCell id="j7mDtUDvfuxQD1GToR6E-18" value="" style="endArrow=none;html=1;strokeWidth=2;exitX=1;exitY=0.3333333333333333;exitDx=0;exitDy=0;exitPerimeter=0;entryX=0;entryY=0.5;entryDx=0;entryDy=0;" parent="1" source="j7mDtUDvfuxQD1GToR6E-4" target="j7mDtUDvfuxQD1GToR6E-5" edge="1">
                    <mxGeometry width="50" height="50" relative="1" as="geometry">
                        <mxPoint x="1748" y="2930" as="sourcePoint"/>
                        <mxPoint x="1847" y="2930" as="targetPoint"/>
                    </mxGeometry>
                </mxCell>
                <mxCell id="j7mDtUDvfuxQD1GToR6E-19" value="" style="endArrow=none;html=1;strokeWidth=2;exitX=1;exitY=0.3333333333333333;exitDx=0;exitDy=0;exitPerimeter=0;entryX=0;entryY=0.5;entryDx=0;entryDy=0;" parent="1" source="j7mDtUDvfuxQD1GToR6E-2" target="j7mDtUDvfuxQD1GToR6E-5" edge="1">
                    <mxGeometry width="50" height="50" relative="1" as="geometry">
                        <mxPoint x="1748" y="3240" as="sourcePoint"/>
                        <mxPoint x="1870.0000000000002" y="3240" as="targetPoint"/>
                    </mxGeometry>
                </mxCell>
                <mxCell id="j7mDtUDvfuxQD1GToR6E-21" value="Pelaporan Administrasi" style="ellipse;whiteSpace=wrap;html=1;strokeWidth=2;" parent="1" vertex="1">
                    <mxGeometry x="1853.25" y="3184" width="97.5" height="70" as="geometry"/>
                </mxCell>
                <mxCell id="j7mDtUDvfuxQD1GToR6E-22" value="" style="endArrow=classic;dashed=1;html=1;dashPattern=1 3;strokeWidth=2;entryX=0.5;entryY=0;entryDx=0;entryDy=0;exitX=0.5;exitY=1;exitDx=0;exitDy=0;" parent="1" source="j7mDtUDvfuxQD1GToR6E-5" target="j7mDtUDvfuxQD1GToR6E-21" edge="1">
                    <mxGeometry width="50" height="50" relative="1" as="geometry">
                        <mxPoint x="1940" y="3340" as="sourcePoint"/>
                        <mxPoint x="2126.25" y="3205" as="targetPoint"/>
                    </mxGeometry>
                </mxCell>
                <mxCell id="j7mDtUDvfuxQD1GToR6E-23" value="&amp;lt;&amp;lt;include&amp;gt;&amp;gt;" style="edgeLabel;html=1;align=center;verticalAlign=middle;resizable=0;points=[];" parent="j7mDtUDvfuxQD1GToR6E-22" vertex="1" connectable="0">
                    <mxGeometry x="-0.4109" y="-2" relative="1" as="geometry">
                        <mxPoint x="-6" y="5" as="offset"/>
                    </mxGeometry>
                </mxCell>
                <mxCell id="2" value="" style="endArrow=none;html=1;strokeWidth=2;entryX=0;entryY=0.5;entryDx=0;entryDy=0;exitX=1;exitY=0.3333333333333333;exitDx=0;exitDy=0;exitPerimeter=0;" parent="1" source="j7mDtUDvfuxQD1GToR6E-1" target="j7mDtUDvfuxQD1GToR6E-7" edge="1">
                    <mxGeometry width="50" height="50" relative="1" as="geometry">
                        <mxPoint x="2430.2300000000005" y="3264.6666666666665" as="sourcePoint"/>
                        <mxPoint x="2300.000000000004" y="3265" as="targetPoint"/>
                    </mxGeometry>
                </mxCell>
                <mxCell id="3" value="" style="endArrow=classic;dashed=1;html=1;dashPattern=1 3;strokeWidth=2;entryX=1;entryY=1;entryDx=0;entryDy=0;exitX=0;exitY=0;exitDx=0;exitDy=0;" parent="1" source="j7mDtUDvfuxQD1GToR6E-7" target="j7mDtUDvfuxQD1GToR6E-21" edge="1">
                    <mxGeometry width="50" height="50" relative="1" as="geometry">
                        <mxPoint x="1962.4264068711927" y="3268.284271247462" as="sourcePoint"/>
                        <mxPoint x="2029" y="3305" as="targetPoint"/>
                    </mxGeometry>
                </mxCell>
                <mxCell id="4" value="&amp;lt;&amp;lt;include&amp;gt;&amp;gt;" style="edgeLabel;html=1;align=center;verticalAlign=middle;resizable=0;points=[];" parent="3" vertex="1" connectable="0">
                    <mxGeometry x="-0.4109" y="-2" relative="1" as="geometry">
                        <mxPoint x="-20" as="offset"/>
                    </mxGeometry>
                </mxCell>
                <mxCell id="zG8khp6Km6ZVUJeF6eS8-4" value="UC&lt;br&gt;01" style="ellipse;whiteSpace=wrap;html=1;aspect=fixed;" parent="1" vertex="1">
                    <mxGeometry x="1900" y="2120" width="30" height="30" as="geometry"/>
                </mxCell>
                <mxCell id="1uYbZAhNDqsG1mUCaU0s-4" value="UC&lt;br&gt;02" style="ellipse;whiteSpace=wrap;html=1;aspect=fixed;" parent="1" vertex="1">
                    <mxGeometry x="2249.5" y="2105" width="30" height="30" as="geometry"/>
                </mxCell>
                <mxCell id="1uYbZAhNDqsG1mUCaU0s-5" value="UC&lt;br&gt;03" style="ellipse;whiteSpace=wrap;html=1;aspect=fixed;" parent="1" vertex="1">
                    <mxGeometry x="1920.5" y="2250" width="30" height="30" as="geometry"/>
                </mxCell>
                <mxCell id="1uYbZAhNDqsG1mUCaU0s-6" value="UC&lt;br&gt;04" style="ellipse;whiteSpace=wrap;html=1;aspect=fixed;" parent="1" vertex="1">
                    <mxGeometry x="2079.5" y="2258" width="30" height="30" as="geometry"/>
                </mxCell>
                <mxCell id="1uYbZAhNDqsG1mUCaU0s-7" value="UC&lt;br&gt;05" style="ellipse;whiteSpace=wrap;html=1;aspect=fixed;" parent="1" vertex="1">
                    <mxGeometry x="2213" y="2205" width="30" height="30" as="geometry"/>
                </mxCell>
                <mxCell id="1uYbZAhNDqsG1mUCaU0s-8" value="UC&lt;br&gt;06" style="ellipse;whiteSpace=wrap;html=1;aspect=fixed;" parent="1" vertex="1">
                    <mxGeometry x="1927" y="2431" width="30" height="30" as="geometry"/>
                </mxCell>
                <mxCell id="1uYbZAhNDqsG1mUCaU0s-9" value="UC&lt;br&gt;07" style="ellipse;whiteSpace=wrap;html=1;aspect=fixed;" parent="1" vertex="1">
                    <mxGeometry x="2119" y="2389" width="30" height="30" as="geometry"/>
                </mxCell>
                <mxCell id="1uYbZAhNDqsG1mUCaU0s-10" value="UC&lt;br&gt;08" style="ellipse;whiteSpace=wrap;html=1;aspect=fixed;" parent="1" vertex="1">
                    <mxGeometry x="1917.5" y="2495.5" width="30" height="30" as="geometry"/>
                </mxCell>
                <mxCell id="1uYbZAhNDqsG1mUCaU0s-11" value="UC&lt;br&gt;09" style="ellipse;whiteSpace=wrap;html=1;aspect=fixed;" parent="1" vertex="1">
                    <mxGeometry x="2116.5" y="2465.5" width="30" height="30" as="geometry"/>
                </mxCell>
                <mxCell id="1uYbZAhNDqsG1mUCaU0s-12" value="UC&lt;br&gt;10" style="ellipse;whiteSpace=wrap;html=1;aspect=fixed;" parent="1" vertex="1">
                    <mxGeometry x="2304" y="2489.5" width="30" height="30" as="geometry"/>
                </mxCell>
                <mxCell id="1uYbZAhNDqsG1mUCaU0s-13" value="UC&lt;br&gt;11" style="ellipse;whiteSpace=wrap;html=1;aspect=fixed;" parent="1" vertex="1">
                    <mxGeometry x="2119" y="2566" width="30" height="30" as="geometry"/>
                </mxCell>
                <mxCell id="1uYbZAhNDqsG1mUCaU0s-14" value="UC&lt;br&gt;12" style="ellipse;whiteSpace=wrap;html=1;aspect=fixed;" parent="1" vertex="1">
                    <mxGeometry x="2116.5" y="2669" width="30" height="30" as="geometry"/>
                </mxCell>
                <mxCell id="1uYbZAhNDqsG1mUCaU0s-15" value="UC&lt;br&gt;13" style="ellipse;whiteSpace=wrap;html=1;aspect=fixed;" parent="1" vertex="1">
                    <mxGeometry x="1885.5" y="2630" width="30" height="30" as="geometry"/>
                </mxCell>
                <mxCell id="1uYbZAhNDqsG1mUCaU0s-16" value="UC&lt;br&gt;14" style="ellipse;whiteSpace=wrap;html=1;aspect=fixed;" parent="1" vertex="1">
                    <mxGeometry x="2153.5" y="2759" width="30" height="30" as="geometry"/>
                </mxCell>
                <mxCell id="1uYbZAhNDqsG1mUCaU0s-17" value="UC&lt;br&gt;15" style="ellipse;whiteSpace=wrap;html=1;aspect=fixed;" parent="1" vertex="1">
                    <mxGeometry x="2308" y="2681" width="30" height="30" as="geometry"/>
                </mxCell>
                <mxCell id="1uYbZAhNDqsG1mUCaU0s-18" value="UC&lt;br&gt;16" style="ellipse;whiteSpace=wrap;html=1;aspect=fixed;" parent="1" vertex="1">
                    <mxGeometry x="2300" y="2844" width="30" height="30" as="geometry"/>
                </mxCell>
                <mxCell id="1uYbZAhNDqsG1mUCaU0s-19" value="UC&lt;br&gt;17" style="ellipse;whiteSpace=wrap;html=1;aspect=fixed;" parent="1" vertex="1">
                    <mxGeometry x="2103.25" y="2851" width="30" height="30" as="geometry"/>
                </mxCell>
                <mxCell id="1uYbZAhNDqsG1mUCaU0s-20" value="UC&lt;br&gt;18" style="ellipse;whiteSpace=wrap;html=1;aspect=fixed;" parent="1" vertex="1">
                    <mxGeometry x="1922" y="2781" width="30" height="30" as="geometry"/>
                </mxCell>
                <mxCell id="1uYbZAhNDqsG1mUCaU0s-21" value="UC&lt;br&gt;19" style="ellipse;whiteSpace=wrap;html=1;aspect=fixed;" parent="1" vertex="1">
                    <mxGeometry x="2093" y="2940" width="30" height="30" as="geometry"/>
                </mxCell>
                <mxCell id="1uYbZAhNDqsG1mUCaU0s-22" value="UC&lt;br&gt;20" style="ellipse;whiteSpace=wrap;html=1;aspect=fixed;" parent="1" vertex="1">
                    <mxGeometry x="1919" y="2942" width="30" height="30" as="geometry"/>
                </mxCell>
                <mxCell id="1uYbZAhNDqsG1mUCaU0s-23" value="UC&lt;br&gt;21" style="ellipse;whiteSpace=wrap;html=1;aspect=fixed;" parent="1" vertex="1">
                    <mxGeometry x="2274" y="3000" width="30" height="30" as="geometry"/>
                </mxCell>
                <mxCell id="1uYbZAhNDqsG1mUCaU0s-24" value="UC&lt;br&gt;22" style="ellipse;whiteSpace=wrap;html=1;aspect=fixed;" parent="1" vertex="1">
                    <mxGeometry x="2158" y="3072.5" width="30" height="30" as="geometry"/>
                </mxCell>
                <mxCell id="1uYbZAhNDqsG1mUCaU0s-25" value="UC&lt;br&gt;23" style="ellipse;whiteSpace=wrap;html=1;aspect=fixed;" parent="1" vertex="1">
                    <mxGeometry x="2012" y="3062.5" width="30" height="30" as="geometry"/>
                </mxCell>
                <mxCell id="1uYbZAhNDqsG1mUCaU0s-26" value="UC&lt;br&gt;24" style="ellipse;whiteSpace=wrap;html=1;aspect=fixed;" parent="1" vertex="1">
                    <mxGeometry x="1927" y="3180" width="30" height="30" as="geometry"/>
                </mxCell>
                <mxCell id="1uYbZAhNDqsG1mUCaU0s-27" value="UC&lt;br&gt;25" style="ellipse;whiteSpace=wrap;html=1;aspect=fixed;" parent="1" vertex="1">
                    <mxGeometry x="2258" y="3210" width="30" height="30" as="geometry"/>
                </mxCell>
                <mxCell id="1uYbZAhNDqsG1mUCaU0s-28" value="UC&lt;br&gt;26" style="ellipse;whiteSpace=wrap;html=1;aspect=fixed;" parent="1" vertex="1">
                    <mxGeometry x="2110" y="3240" width="30" height="30" as="geometry"/>
                </mxCell>
            </root>
        </mxGraphModel>
    </diagram>
</mxfile>